<?xml version="1.0" encoding="utf-8"?>
<!-- Generator: Adobe Illustrator 27.5.0, SVG Export Plug-In . SVG Version: 6.00 Build 0)  -->
<svg version="1.1" xmlns="http://www.w3.org/2000/svg" xmlns:xlink="http://www.w3.org/1999/xlink" x="0px" y="0px"
	 viewBox="0 0 500 500" style="enable-background:new 0 0 500 500;" xml:space="preserve">
<g id="BACKGROUND">
	<rect style="fill:#FFFFFF;" width="500" height="500"/>
</g>
<g id="OBJECTS">
	<g>
		<g>
			<rect x="107.846" y="148.791" style="fill:#231310;" width="187.28" height="131.079"/>
			<g>
				<path style="fill:#231310;" d="M279.316,170.948c7.213,0.364,14.445,0.255,21.666,0.26c7.222,0.005,14.444,0.009,21.666,0.014
					c14.447,0.009,28.887-0.111,43.332-0.294c8.122-0.102,16.238-0.183,24.352-0.576c1.633-0.079,1.636-2.46,0-2.539
					c-14.425-0.699-28.893-0.634-43.332-0.816c-14.441-0.182-28.89-0.051-43.332-0.042c-8.114,0.005-16.247-0.148-24.352,0.261
					C276.916,167.335,276.911,170.826,279.316,170.948L279.316,170.948z"/>
				<path style="fill:#231310;" d="M279.316,189.056c7.213,0.364,14.445,0.255,21.666,0.26c7.222,0.005,14.444,0.009,21.666,0.014
					c14.447,0.009,28.887-0.111,43.332-0.294c8.122-0.103,16.238-0.183,24.352-0.577c1.633-0.079,1.636-2.46,0-2.539
					c-14.425-0.699-28.893-0.634-43.332-0.816c-14.441-0.182-28.89-0.051-43.332-0.042c-8.114,0.005-16.247-0.148-24.352,0.261
					C276.916,185.443,276.911,188.934,279.316,189.056L279.316,189.056z"/>
				<path style="fill:#231310;" d="M279.316,207.164c7.213,0.364,14.445,0.255,21.666,0.26c7.222,0.005,14.444,0.009,21.666,0.014
					c14.447,0.009,28.887-0.111,43.332-0.294c8.122-0.103,16.238-0.183,24.352-0.577c1.633-0.079,1.636-2.46,0-2.539
					c-14.425-0.699-28.893-0.634-43.332-0.816c-14.441-0.182-28.89-0.051-43.332-0.042c-8.114,0.005-16.247-0.148-24.352,0.261
					C276.916,203.551,276.911,207.042,279.316,207.164L279.316,207.164z"/>
				<path style="fill:#231310;" d="M279.316,225.272c7.213,0.364,14.445,0.255,21.666,0.26c7.222,0.005,14.444,0.009,21.666,0.014
					c14.447,0.009,28.887-0.111,43.332-0.294c8.122-0.103,16.238-0.183,24.352-0.577c1.633-0.079,1.636-2.46,0-2.539
					c-14.425-0.699-28.893-0.634-43.332-0.816c-14.441-0.182-28.89-0.051-43.332-0.042c-8.114,0.005-16.247-0.148-24.352,0.261
					C276.916,221.66,276.911,225.15,279.316,225.272L279.316,225.272z"/>
				<path style="fill:#231310;" d="M279.316,243.38c7.213,0.364,14.445,0.255,21.666,0.26c7.222,0.005,14.444,0.009,21.666,0.014
					c14.447,0.009,28.887-0.112,43.332-0.294c8.122-0.103,16.238-0.183,24.352-0.576c1.633-0.079,1.636-2.46,0-2.539
					c-14.425-0.699-28.893-0.634-43.332-0.816c-14.441-0.182-28.89-0.051-43.332-0.042c-8.114,0.005-16.247-0.148-24.352,0.261
					C276.916,239.768,276.911,243.258,279.316,243.38L279.316,243.38z"/>
				<path style="fill:#231310;" d="M279.316,261.488c7.213,0.364,14.445,0.255,21.666,0.26c7.222,0.004,14.444,0.009,21.666,0.014
					c14.447,0.009,28.887-0.111,43.332-0.294c8.122-0.103,16.238-0.183,24.352-0.577c1.633-0.079,1.636-2.46,0-2.539
					c-14.425-0.699-28.893-0.634-43.332-0.816c-14.441-0.182-28.89-0.051-43.332-0.042c-8.114,0.005-16.247-0.148-24.352,0.261
					C276.916,257.876,276.911,261.366,279.316,261.488L279.316,261.488z"/>
				<path style="fill:#231310;" d="M279.316,279.596c7.213,0.364,14.445,0.255,21.666,0.26c7.222,0.004,14.444,0.009,21.666,0.014
					c14.447,0.009,28.887-0.111,43.332-0.294c8.122-0.103,16.238-0.183,24.352-0.577c1.633-0.079,1.636-2.46,0-2.539
					c-14.425-0.699-28.893-0.634-43.332-0.816c-14.441-0.182-28.89-0.051-43.332-0.042c-8.114,0.005-16.247-0.148-24.352,0.261
					C276.916,275.983,276.911,279.474,279.316,279.596L279.316,279.596z"/>
				<path style="fill:#231310;" d="M279.316,152.84c7.213,0.364,14.445,0.255,21.666,0.26c7.222,0.005,14.444,0.009,21.666,0.014
					c14.447,0.009,28.887-0.112,43.332-0.294c8.122-0.103,16.238-0.183,24.352-0.577c1.633-0.079,1.636-2.46,0-2.539
					c-14.425-0.699-28.893-0.634-43.332-0.816c-14.441-0.182-28.89-0.051-43.332-0.042c-8.114,0.005-16.247-0.148-24.352,0.261
					C276.916,149.227,276.911,152.718,279.316,152.84L279.316,152.84z"/>
			</g>
		</g>
		<g>
			<g>
				<defs>
					<rect id="SVGID_1_" x="142.995" y="99.767" width="207.918" height="180.103"/>
				</defs>
				<clipPath id="SVGID_00000180342049828183938930000003760587880873077416_">
					<use xlink:href="#SVGID_1_"  style="overflow:visible;"/>
				</clipPath>
				<g style="clip-path:url(#SVGID_00000180342049828183938930000003760587880873077416_);">
					<g>
						<path style="fill:#F6D510;" d="M165.745,162.436l-5.193-5.082l4.972-5.635l-2.431-3.646l2.32-2.431l-0.884-1.878l3.093-3.093
							l1.105,0.331l3.094-3.977c0,0-3.646-3.646-0.552-12.374c3.093-8.728,4.64-11.932,12.816-16.904
							c8.176-4.972,13.7-5.745,20.329-3.204c6.629,2.541,11.159,7.292,9.502,18.23c-1.657,10.938-12.816,16.683-16.241,18.782
							c-3.425,2.099-7.292,2.431-7.292,2.431l0.221,6.298l1.547,2.983l-9.281,13.921c0,0-2.983,25.743-2.652,25.853
							c0.331,0.11,8.286-0.11,8.286-0.11l0.552-3.535c0,0,38.559-12.706,38.891-12.706c0.331,0,27.179,3.314,27.179,3.314
							s-0.332-1.768-1.326-6.629c-0.994-4.861-3.867-12.595-3.867-12.595l3.425-5.635c0,0-3.425-3.204-3.646-5.414
							c-0.221-2.21,4.53-17.456,4.53-17.456l-1.657-6.519v-4.309c0,0,3.204-0.663,15.247-2.21
							c12.043-1.547,21.765-1.215,26.737-0.994c4.972,0.221,9.391,1.768,9.391,1.768s4.198,12.043,2.872,27.4
							c-1.326,15.357-8.507,22.428-8.507,22.428l0.331,14.915c0,0,29.057,21.986,34.582,27.179c5.524,5.193,6.85,6.96,6.85,6.96
							s1.657,11.269,1.326,28.284c-0.332,17.015-4.972,45.188-4.972,45.188l-21.323,2.762l-39.001,3.867l-20.329,0.884
							l-40.106-1.105l2.652-56.457l0.994-20.771l-25.743,2.541l-1.657-2.983l-2.21-0.221c0,0-16.573,0.11-22.76-0.994
							c-6.187-1.105-10.164-2.652-10.164-2.652s-0.884-6.298,1.547-20.661c2.431-14.363,10.496-31.709,10.496-31.709l-1.215-3.425
							L165.745,162.436z"/>
						<path style="fill:#231310;" d="M306.942,143.623c-0.165-7.611-1.572-22.667-1.572-22.667l-4.302-1.82
							c0,0-20.847-1.489-24.653-0.91c-3.806,0.579-21.509,2.565-21.509,2.565l3.888,11.003l0.414-8.604l4.798,12.078l5.377,0.083
							l-0.165,2.316l-0.414,11.582l-1.654-0.083l-7.528,2.895l-0.744,5.212l6.039-2.316l-0.662-1.489c0,0,0-0.248,0.993-0.496
							c0.993-0.248,2.73,0.165,4.219,0.993c1.489,0.827,2.482,1.241,2.482,1.241s0.993-0.083,2.316,1.82
							c1.324,1.903,3.392,3.723,3.392,3.723l-0.993,1.241l-5.543,5.129l0.745,8.356c0,0-0.745,2.978-0.91,5.046
							c-0.165,2.068-2.068,5.46-2.068,5.46s10.458-3.67,14.677-5.655c4.219-1.986,4.323-2.882,4.323-2.882l1.847-9.745
							c0,0,0.248-1.572,0.165-2.482c-0.083-0.91,0.083-0.993,0.827-2.316c0.745-1.324,3.309-0.745,3.971,0.993
							c0.662,1.737,0,2.234,0,2.234l-4.302,1.075l-0.745,3.805l-1.076,7.032l-9.183,4.715l-11.582,4.054
							c0,0,0.414,7.363,0.248,7.611c-0.165,0.248,2.73,3.392,2.978,3.227c0.248-0.166,3.475,3.805,3.475,3.805
							s5.625-0.827,13.733-4.467s10.341-7.197,10.341-7.197l-0.083-3.392l-0.165-15.636c0,0,3.309-5.708,4.716-9.183
							C304.461,158.1,307.108,151.234,306.942,143.623z M295.278,155.205c-2.068,2.068-6.122,6.618-6.122,6.618
							s-0.414-2.234,0.248-4.715c0.662-2.482,2.647-4.054,4.136-5.129s3.226-2.068,5.046-0.662c1.82,1.406,2.068,2.482,2.068,2.482
							S297.346,153.137,295.278,155.205z"/>
						<polygon style="fill:#231310;" points="254.739,174.939 253.878,172.412 257.495,172.584 258.988,172.297 266.797,175.513 
													"/>
						<path style="fill:#231310;" d="M339.28,217.722l-30.926-26.181c0,0-6.218,5.891-14.4,10.145
							c-8.182,4.254-22.254,6.873-22.254,6.873l-4.418-4.582l2.945,11.781l3.109-0.818c0,0-8.182,20.454-14.891,45.653
							c-6.709,25.199-7.691,38.617-7.691,38.617c6.218,2.291,48.926-2.454,48.926-2.454s3.436-17.999,5.727-28.308
							c2.291-10.309,7.854-26.999,7.854-26.999s-2.945,20.618-2.945,26.836c0,6.218-2.291,27.817-2.291,27.817l3.764-0.491
							l24.652-3.245c0,0,2.078-0.841,3.656-18.518C342.676,244.973,339.28,217.722,339.28,217.722z M301.645,233.921l-24.872-7.363
							c0-0.491,5.4-13.745,5.4-13.745l24.381,7.2L301.645,233.921z"/>
						<path style="fill:#231310;" d="M175.989,137.313c0,0-3.049-4.955-0.381-12.706c2.668-7.751,11.181-13.341,15.501-15.756
							c4.32-2.414,12.198-3.812,16.391-2.033c4.193,1.779,7.878,8.132,6.861,15.501c-1.017,7.37-11.436,17.535-15.756,19.44
							s-9.911,1.779-10.419,1.906c-0.508,0.127-3.304,0.254-3.304,0.254l-2.414-2.923L175.989,137.313z"/>
						<path style="fill:#231310;" d="M189.711,155.737l-13.341,12.579c0,0-1.144,23.887-1.271,29.859
							c-0.127,5.972-1.398,9.657-1.398,9.657l6.48-13.469l2.688-27.176C182.87,167.187,188.695,158.659,189.711,155.737z"/>
						<path style="fill:#231310;" d="M157.057,213.931c0,0,14.612,0.381,22.871-0.381c8.259-0.762,11.69-0.762,11.69-0.762
							l0.254-2.16c0,0,28.97-5.845,28.462-5.718c-0.508,0.127-0.381,15.883-0.762,15.883c-0.381,0-25.984,3.294-25.984,3.294
							l-0.953-2.913c0,0-4.447-0.508-9.021-0.381c-4.574,0.127-13.229-0.284-16.653-0.904c-3.423-0.621-10.411-3.162-10.411-3.162
							L157.057,213.931z"/>
						<polygon style="fill:#231310;" points="165.71,161.951 160.564,157.851 165.79,152.062 171.258,156.805 						"/>
					</g>
					<g>
						<path style="fill:#231310;" d="M262.631,179.409c-0.687-0.127-1.389-0.024-2.087-0.025c-0.739,0-1.476-0.018-2.213-0.077
							c-0.716-0.057-0.885,1.131-0.171,1.264c1.352,0.251,3.135,0.622,4.471,0.176C263.227,180.548,263.352,179.542,262.631,179.409
							z"/>
						<path style="fill:#231310;" d="M341.513,268.688c0.918-9.686,1.242-19.429,0.811-29.107c-0.057-1.283-0.134-2.563-0.225-3.84
							c-0.008-0.426-0.015-0.853-0.023-1.28c-0.104-5.538-0.392-11.055-1.401-16.512c-0.057-0.306-0.214-0.495-0.412-0.593
							c-0.048-0.082-0.09-0.165-0.171-0.241c-9.968-9.32-20.267-18.243-31.094-26.554c-3.064-2.352-6.143-4.711-9.44-6.729
							c-0.009-0.278-0.016-0.555-0.025-0.833c-0.065-1.95-0.161-3.9-0.255-5.849c-0.103-2.145-0.229-4.286-0.379-6.426
							c0.036-0.038,0.079-0.06,0.112-0.106c7.846-10.996,10.173-25.491,8.769-38.698c-0.431-4.058-1.192-8.049-2.264-11.986
							c-0.082-0.302-0.276-0.462-0.497-0.53c-0.107-0.119-0.239-0.222-0.425-0.282c-13.023-4.195-26.848-2.422-40.103-0.492
							c-3.926,0.572-7.851,1.161-11.782,1.693c-0.177,0.024-0.3,0.112-0.397,0.221c-0.317,0.111-0.581,0.392-0.624,0.844
							c-0.305,3.216,0.578,6.75,1.691,9.738c0.048,0.129,0.116,0.234,0.197,0.32c-1.721,4.229-2.995,8.604-3.79,13.104
							c-0.368,2.085-0.938,4.434-0.694,6.555c0.216,1.879,1.506,3.236,3.024,4.233c-0.869,1.402-1.837,2.8-2.536,4.283
							c-0.092,0.195-0.099,0.378-0.071,0.546c-0.031,0.11-0.043,0.23-0.01,0.368c1.057,4.36,2.231,8.69,3.448,13.008
							c0.445,1.579,0.962,3.217,1.37,4.88c-4.295-0.203-8.592-0.419-12.867-0.898c-2.212-0.248-4.415-0.573-6.598-1.004
							c-2.168-0.428-4.354-1.038-6.583-0.949c-2.083,0.083-4.085,0.7-6.039,1.381c-2.18,0.76-4.354,1.538-6.531,2.308
							c-4.332,1.531-8.665,3.063-12.997,4.595c-4.954,1.751-9.918,3.475-14.824,5.359c-0.569,0.218-0.729,0.787-0.596,1.242
							c-0.003,0.083-0.017,0.161,0,0.253c0.07,0.372,0.148,0.741,0.221,1.112c-1.128-0.047-2.36,0.264-3.446,0.405
							c-1.071,0.14-2.123,0.33-3.174,0.551c0.166-0.833,0.114-1.786,0.169-2.592c0.075-1.107,0.16-2.214,0.252-3.32
							c0.185-2.212,0.393-4.422,0.626-6.629c0.439-4.156,0.942-8.306,1.484-12.45c0.06-0.039,0.122-0.071,0.175-0.133
							c3.592-4.246,6.677-9.061,9.088-14.066c0.159-0.33,0.072-0.64-0.118-0.851c0.049-0.158,0.059-0.336-0.014-0.542
							c-0.25-0.7-0.703-1.33-1.159-1.944c-0.125-2.012-0.146-4.028-0.163-6.043c6.549-0.922,12.308-5.098,16.856-9.947
							c2.845-3.034,5.608-6.424,6.816-10.476c1.016-3.405,0.736-7.139-0.588-10.419c-1.353-3.351-3.646-6.25-6.704-8.2
							c-3.388-2.161-7.513-3.113-11.509-2.941c-8.26,0.357-15.721,5.326-20.65,11.742c-2.847,3.706-5.198,8.201-5.904,12.862
							c-0.475,3.133-0.159,6.768,1.602,9.459c-0.112,0.067-0.214,0.153-0.294,0.266c-0.787,1.12-1.478,2.312-2.085,3.539
							c-0.211-0.139-0.434-0.236-0.676-0.242c-0.756-0.018-1.355,0.79-1.842,1.268c-0.768,0.754-1.537,1.508-2.305,2.263
							c-0.26,0.255-0.256,0.696,0,0.953c0.214,0.215,0.43,0.429,0.645,0.644c-0.95,0.854-1.83,1.775-2.635,2.767
							c-0.255,0.314-0.307,0.744,0,1.054c0.926,0.935,1.865,1.857,2.797,2.786c-1.632,1.918-3.281,3.82-4.922,5.729
							c-0.315,0.367-0.417,0.997,0,1.351c0.964,0.819,1.926,1.642,2.898,2.451c0.723,0.601,1.554,1.589,2.445,1.91
							c0.817,0.294,1.473-0.333,2.026-0.922c0.245,0.743,0.525,1.436,1.005,2.123c-0.106,0.071-0.203,0.166-0.275,0.315
							c-6.047,12.553-9.962,25.909-11.715,39.732c-0.248,1.956-0.452,3.919-0.612,5.884c-0.157,1.934-0.43,3.968-0.285,5.906
							c0.028,0.367,0.261,0.65,0.555,0.822c-0.076,0.372,0.075,0.789,0.556,0.941c11.365,3.578,23.589,4.69,35.469,4.139
							c0.038,0.585,0.098,1.164,0.242,1.706c0.035,0.132,0.103,0.24,0.186,0.337c0.016,0.495,0.438,1.006,1.083,0.897
							c4.22-0.716,8.492-1.13,12.745-1.586c2.095-0.225,4.189-0.448,6.284-0.673c1.811-0.195,3.686-0.301,5.5-0.586
							c0.319,9.608-0.35,19.179-0.915,28.768c-0.595,10.085-1.19,20.169-1.785,30.254c-0.334,5.66-0.83,11.339-0.978,17.007
							c-0.004,0.139,0.026,0.253,0.061,0.363c-0.165,0.526,0.017,1.135,0.711,1.273c8.018,1.593,16.271,1.405,24.406,1.35
							c8.385-0.056,16.769-0.261,25.147-0.616c11.565-0.49,23.117-1.284,34.644-2.341c0.371,0.252,0.954,0.216,1.341-0.117
							c4.725-0.443,9.447-0.92,14.163-1.458c4.694-0.535,9.382-1.119,14.064-1.747c0.503-0.067,1.119-0.129,1.784-0.206
							c0.102,0.048,0.22,0.073,0.359,0.04c0.262-0.063,0.524-0.126,0.786-0.189c0.95-0.139,1.935-0.332,2.822-0.636
							c0.823-0.195,1.671-0.426,2.488-0.478c0.275-0.017,0.456-0.133,0.574-0.285c0.253-0.105,0.46-0.318,0.529-0.685
							c1.043-5.531,1.925-11.117,2.62-16.732C341.065,273.319,341.316,271.006,341.513,268.688z M274.825,200.275
							c-0.027-0.068-0.042-0.135-0.089-0.203c-0.793-1.153-1.882-2.152-2.857-3.152c-0.956-0.98-1.954-1.912-2.969-2.83
							c0.01-0.033,0.03-0.06,0.035-0.097c0.154-1.123,0.029-2.291-0.005-3.423c-0.032-1.069-0.079-2.139-0.122-3.208
							c1.36-0.514,2.716-1.039,4.075-1.547c3.168-1.185,6.338-2.366,9.502-3.561c1.54-0.581,3.092-1.14,4.623-1.746
							c1.26-0.498,2.123-1.188,2.397-2.575c0.636-3.221,0.953-6.523,1.436-9.772c1.306-0.499,2.809-0.648,4.126-1.09
							c0.692-0.232,1.341-0.535,1.948-0.908c0.103,3.665,0.276,7.325,0.442,10.988c0.086,1.89,0.155,3.782,0.237,5.672
							c0.041,0.946,0.085,1.891,0.125,2.837c0.039,0.928-0.066,1.996,0.241,2.878c0.032,0.091,0.077,0.172,0.131,0.243
							c-2.8,3.209-6.23,5.597-10.114,7.349C283.782,198.027,279.275,199.115,274.825,200.275z M262.913,187.498
							c-0.042-0.018-0.07-0.045-0.117-0.059c-2.056-0.595-4.163-1.029-6.236-1.582c0.549-3.462-0.191-6.845-1.112-10.191
							c0.311,0.031,0.636,0.07,0.745,0.071c0.526,0.003,1.053,0.006,1.579,0.013c1.112,0.016,2.223,0.048,3.334,0.084
							c2.165,0.07,4.327,0.203,6.485,0.386c0.958,0.081,0.972-1.456,0-1.505c-0.071-0.004-0.142-0.005-0.213-0.009
							c-1.492-0.906-3.308-1.415-4.936-1.923c-0.909-0.283-1.797-0.682-2.707-0.948c-0.75-0.219-1.581,0.071-2.338,0.313
							c-0.109-1.773-0.098-3.548-0.252-5.321c0.895,0.031,1.79,0.063,2.686,0.089c0.9,0.026,2.19,0.24,2.875-0.516
							c0.763-0.843,0.563-2.334,0.725-3.364c0.054-0.341-0.145-0.747-0.551-0.723c-1.442,0.086-2.876,0.258-4.299,0.503
							c0.201-1.456,0.385-2.912,0.517-4.379c0.033-0.367,0.07-0.731,0.105-1.094c1.972-0.641,3.941-1.29,5.908-1.947
							c0.11,0.162,0.238,0.309,0.398,0.427c-0.028,0.003-0.056,0.008-0.084,0.01c-0.523,0.05-0.545,0.847,0,0.833
							c2.328-0.062,4.638-0.29,6.94-0.642c0.762,0.799,1.567,1.558,2.314,2.372c0.429,0.468,0.852,0.942,1.26,1.429
							c0.204,0.243,0.401,0.492,0.605,0.735c0.13,0.149,0.258,0.3,0.385,0.451c-0.017,0.021-0.023,0.023-0.051,0.061
							c-0.217,0.492-0.991,1.084-1.363,1.472c-0.462,0.483-0.932,0.959-1.41,1.427c-0.935,0.916-1.905,1.793-2.894,2.649
							c-0.218-0.074-0.529,0.059-0.524,0.339c0.062,3.368,0.397,6.7,0.564,10.063c0.083,1.671-0.64,3.022-1.308,4.509
							c-0.576,1.284-1.154,2.567-1.732,3.85C266.429,186.05,264.653,186.734,262.913,187.498z M256.77,173.449
							c0.029,0.001,0.056-0.013,0.085-0.017c0.116,0.058,0.251,0.089,0.411,0.056c0.93-0.192,1.698-0.472,2.595-0.097
							c0.81,0.339,1.643,0.618,2.49,0.849c0.393,0.107,0.777,0.213,1.159,0.321c-1.094-0.028-2.188-0.047-3.281-0.046
							c-1.17,0.001-2.34,0.026-3.509,0.062c-0.415,0.013-1.021-0.044-1.574,0.002c-0.079-0.281-0.158-0.562-0.237-0.842
							c-0.034-0.119-0.069-0.238-0.103-0.357C255.459,173.428,256.117,173.433,256.77,173.449z M269.29,150.3
							c1.589,0.378,3.107,1.183,4.773,1.214c0.245,0.005,0.412-0.339,0.211-0.51c-1.231-1.045-3.091-1.875-4.698-2.353
							c0.193-4.305,0.489-8.624,0.527-12.934c2.403-0.261,4.804-0.538,7.203-0.819c-0.18,1.507-0.065,3.053-0.039,4.566
							c0.017,1.012,0.047,2.023,0.073,3.035c0.026,0.986-0.104,2.104,0.202,3.047c0.006,0.018,0.017,0.03,0.024,0.046
							c-0.07,0.289,0.013,0.616,0.341,0.839c2.098,1.42,4.372,2.681,6.194,4.462c0.943,0.921,1.664,1.997,2.354,3.113
							c0.716,1.158,1.438,2.188,1.536,3.584c0.028,0.391,0.32,0.672,0.656,0.798c-0.262,1.275-0.23,2.612,0.134,3.875
							c0.159,0.551,0.978,0.565,1.131,0c0.306-1.133,1.162-2.27,1.882-3.176c0.682-0.859,1.457-1.645,2.293-2.354
							c1.694-1.435,4.123-3.142,6.441-2.513c0.129,0.31,0.232,0.645,0.294,1.016c0.458,2.726-1.241,5.67-2.831,7.764
							c-0.672,0.885-1.45,1.575-2.386,2.074c0.334-1.945-1.732-4.109-3.732-3.46c-2.237,0.726-3.176,3.166-2.488,5.278
							c-0.255,0.22-0.322,0.574-0.238,0.891c-0.534,3.07-1.073,6.144-1.649,9.206c-0.105,0.557-0.159,1.04-0.67,1.348
							c-0.631,0.381-1.469,0.579-2.156,0.837c-1.445,0.542-2.889,1.084-4.334,1.627c-2.889,1.086-5.774,2.186-8.66,3.28
							c-0.607,0.23-1.217,0.457-1.826,0.684c0.433-0.974,0.866-1.949,1.3-2.923c0.631-1.416,1.356-2.774,1.339-4.362
							c-0.034-3.267-0.5-6.581-0.965-9.82c0.083-0.018,0.166-0.05,0.244-0.118c1.266-1.092,2.493-2.229,3.669-3.418
							c0.549-0.555,1.087-1.12,1.614-1.695c0.339-0.37,0.924-0.827,1.015-1.357c0.092-0.535-0.353-1.004-0.647-1.392
							c-0.448-0.589-0.937-1.15-1.435-1.697c-0.93-1.019-1.945-2.027-3.072-2.837c-0.12-0.226-0.353-0.395-0.671-0.329
							c-0.135,0.028-0.271,0.045-0.406,0.072c-2.241-1.826-4.94-2.849-7.83-1.986c-0.935,0.279-0.502,1.784,0.4,1.451
							c0.087-0.032,0.179-0.046,0.268-0.074c0.008,0.039,0.018,0.077,0.026,0.115c-1.797,0.688-3.602,1.351-5.416,1.994
							c0.035-0.41,0.06-0.82,0.077-1.23c0.04-0.188,0.081-0.376,0.12-0.564c0.072-0.345,0.079-1.032,0.27-1.322
							c0.394-0.597,1.659-0.852,2.296-1.103c0.789-0.311,1.58-0.617,2.379-0.901C265.924,150.738,267.68,149.917,269.29,150.3z
							 M289.712,160.317c-0.057-1.233,0.111-2.44,0.489-3.633c1.321-1.884,2.923-3.813,5.109-4.509
							c1.576-0.502,3.118-0.275,4.184,0.618c-2.093,0.09-4.07,1.375-5.678,2.661c-1.045,0.835-1.991,1.786-2.817,2.838
							C290.492,158.936,290.099,159.624,289.712,160.317z M290.225,166.65c-0.181-1.179,0.398-2.533,1.34-3.242
							c0.556-0.418,1.232-0.633,1.847-0.225c0.664,0.441,1.17,1.442,0.844,2.21c-0.037,0.086-0.053,0.17-0.055,0.25
							c-0.543,0.17-1.094,0.315-1.645,0.452C291.809,166.281,291.003,166.56,290.225,166.65z M266.186,154.23
							c0,0.029,0,0.058,0.006,0.087c-0.003-0.022-0.006-0.044-0.009-0.066C266.185,154.244,266.185,154.237,266.186,154.23z
							 M268.31,154.244c0.81,0.191,1.599,0.485,2.312,0.861c-0.914,0.162-1.83,0.309-2.751,0.431
							C268.158,155.189,268.317,154.729,268.31,154.244z M293.138,118.793c3.714,0.351,7.384,1.074,10.936,2.219
							c0.004,0.001,0.007,0,0.011,0.001c2.581,13.018,3.027,26.624-1.846,39.182c-0.992,2.555-2.213,4.985-3.598,7.334
							c-0.054-0.631-0.092-1.262-0.154-1.892c-0.02-0.207-0.11-0.362-0.227-0.486c0,0,0.001-0.001,0.001-0.001
							c1.883-1.799,3.474-4.519,4.131-7.033c0.594-2.273,0.287-5.003-1.535-6.661c-1.814-1.652-4.462-1.702-6.628-0.767
							c-2.182,0.942-3.594,2.764-4.8,4.717c-0.216-0.594-0.509-1.168-0.83-1.728c-0.735-1.283-1.557-2.555-2.553-3.652
							c-1.934-2.132-4.545-3.508-7.075-4.81c0.13-0.825,0.011-1.711-0.017-2.536c-0.035-1.012-0.066-2.024-0.108-3.035
							c-0.074-1.757-0.224-3.539-0.133-5.3c0.122-0.25,0.127-0.538,0.011-0.764c-0.079-0.424-0.635-0.549-0.962-0.308
							c-4.488,0.431-8.97,0.925-13.454,1.405c-1.511-4.256-3.181-8.467-4.799-12.683c-0.24-0.627-1.189-0.567-1.209,0.163
							c-0.075,2.76,0.025,5.492,0.185,8.233c-1.212-2.791-2.098-5.719-2.75-8.688C268.194,120.377,280.542,117.604,293.138,118.793z
							 M255.082,130.657c-0.505-1.478-0.895-2.989-1.145-4.531c-0.227-1.408-0.256-2.804-0.349-4.214
							c0.319-0.029,0.639-0.06,0.958-0.092c0.645,4.11,2.141,7.976,4.187,11.577c0.248,0.436,1.056,0.275,0.999-0.271
							c-0.267-2.554-0.327-5.15-0.289-7.733c1.145,3.152,2.297,6.306,3.526,9.424c-1.983,0.21-3.999,0.399-5.985,0.281
							c-0.668-0.04-0.687-0.216-0.918-0.832c-0.197-0.528-0.386-1.058-0.567-1.592c-0.16-0.473-0.292-0.955-0.44-1.431
							C255.133,131.08,255.161,130.887,255.082,130.657z M254.285,133.178c0.016,0.056,0.028,0.113,0.044,0.169
							c0.247,0.863,0.421,2.085,1.071,2.754c0.749,0.77,2.148,0.623,3.131,0.621c1.261-0.002,2.523-0.099,3.778-0.215
							c2.143-0.198,4.285-0.423,6.426-0.651c-0.407,4.166-0.582,8.365-0.841,12.542c-1.519,0.038-3.06,0.729-4.441,1.24
							c-0.924,0.342-1.836,0.713-2.736,1.114c-0.717,0.319-1.869,0.64-2.16,1.472c-0.159,0.454-0.123,1.061-0.19,1.541
							c-0.062,0.445-0.121,0.89-0.18,1.335c-0.148,1.11-0.273,2.22-0.389,3.333c-0.007,0.069,0.008,0.127,0.032,0.179
							c-0.312,1.644-0.585,3.29-0.819,4.949c-0.102,0.724,0.635,1.217,1.228,0.715c0.101-0.085,0.168-0.158,0.228-0.238
							c0.095,0.029,0.199,0.043,0.317,0.021c1.137-0.216,2.279-0.383,3.426-0.52c-0.06,0.351-0.125,0.701-0.185,1.05
							c-0.074,0.439-0.092,0.666-0.545,0.771c-0.868,0.202-1.997-0.017-2.884-0.038c-1-0.024-2-0.047-3-0.071
							c-0.471-0.011-0.941-0.023-1.412-0.033c-0.266-0.006-0.802,0.071-1.178,0.036c0.01-0.456,0.202-1.049,0.263-1.385
							c0.102-0.553,0.211-1.105,0.326-1.655c0.219-1.046,0.463-2.086,0.731-3.12c0.549-2.123,1.164-4.225,1.884-6.296
							c0.028-0.081,0.035-0.155,0.031-0.224c0.13-0.188,0.161-0.434,0.021-0.684c-0.456-0.817-1.589-1.112-2.423-1.435
							c-1.019-0.394-2.054-0.687-3.123-0.911c-0.002-0.001-0.004,0-0.006,0c0.133-2.029,0.524-4.074,0.915-6.063
							C252.308,139.999,253.208,136.559,254.285,133.178z M253.601,155.707c0.118-0.225,0.109-0.437,0.032-0.616
							c0.106-0.264,0.074-0.564-0.204-0.783c-0.702-0.553-1.477-1.028-2.043-1.733c-0.349-0.435-0.533-0.915-0.628-1.42
							c0.784,0.247,1.563,0.515,2.325,0.819c0.589,0.235,1.257,0.68,1.916,0.855c-0.904,2.361-1.692,4.76-2.308,7.213
							c-0.293,1.167-0.548,2.342-0.78,3.522c-0.309-1.003-0.607-2.01-0.927-3.009c0.022-0.027,0.049-0.042,0.07-0.073
							C252.041,158.997,252.774,157.286,253.601,155.707z M252.873,166.684c0.327,0.028,0.666,0.021,0.957,0.033
							c0.647,0.027,1.294,0.043,1.941,0.064c0.165,0.005,0.33,0.011,0.496,0.016c0.039,1.751,0.114,3.534-0.084,5.275
							c-0.548-0.046-1.096-0.091-1.644-0.094c-0.05,0-0.086,0.017-0.13,0.024C253.905,170.227,253.398,168.453,252.873,166.684z
							 M182.213,166.588c-0.211,0.277-0.175,0.581-0.022,0.83c-0.755,4.196-1.391,8.41-1.905,12.643
							c-0.268,2.207-0.512,4.417-0.732,6.629c-0.11,1.106-0.215,2.213-0.317,3.32c-0.099,1.072-0.394,2.319-0.133,3.371
							c0.071,0.288,0.243,0.454,0.446,0.535c0.026,0.083,0.064,0.158,0.115,0.228c-1.163,3.88-2.814,7.617-4.95,11.059
							c1.574-6.332,1.836-12.946,2.006-19.449c0.107-4.102,0.214-8.204,0.32-12.305c0.026-1.01,0.057-2.021,0.077-3.032
							c0.019-0.949-0.036-1.867,0.536-2.679c0.541-0.767,1.355-1.39,2.046-2.02c0.795-0.725,1.59-1.45,2.384-2.175
							c2.097-1.914,4.195-3.828,6.285-5.75C186.44,160.802,184.397,163.725,182.213,166.588z M189.701,147.884
							c-0.263-0.372-0.525-0.746-0.788-1.118c-0.571-0.805-1.133-1.618-1.713-2.416c0.765,0.055,1.52,0.063,2.267,0.027
							C189.471,145.554,189.556,146.722,189.701,147.884z M211.415,112.195c1.553,2.753,2.293,6.02,1.903,9.171
							c-0.451,3.649-2.549,6.8-4.892,9.529c-5.416,6.308-13.089,12.633-21.994,11.383c-0.267-0.038-0.492,0.033-0.685,0.146
							c-0.098-0.149-0.182-0.303-0.264-0.458c0.075-0.39-0.08-0.83-0.568-0.993c-2.965-0.992-5.738-2.236-8.354-3.944
							c-3.397-5.738-0.865-12.934,3.069-17.877c4.281-5.38,10.215-9.77,16.979-11.352c3.819-0.893,7.735-0.74,11.47,0.379
							C209.392,109.284,210.529,110.623,211.415,112.195z M171.477,127.591c0.495-3.811,2.25-7.485,4.357-10.66
							c4.051-6.102,10.425-11.046,17.738-12.348c3.776-0.672,7.73-0.182,11.113,1.428c-6.113-0.911-12.559,1.012-17.681,4.385
							c-6.031,3.972-11.676,10.11-13.069,17.402c-0.62,3.246-0.243,6.363,1.294,9.115c-0.015,0.012-0.034,0.02-0.049,0.033
							c-0.274,0.245-0.545,0.516-0.799,0.802c-0.003-0.004-0.003-0.008-0.007-0.012C172.05,134.823,170.996,131.3,171.477,127.591z
							 M171.538,138.092c0.536,0.537,1.119,1.057,1.761,1.443c-0.192,0.63-0.192,1.303,0.139,2c0.389,0.82,1.148,1.411,1.836,1.97
							c0.849,0.69,1.732,1.33,2.651,1.923c0.023,0.015,0.044,0.015,0.066,0.026c0.133,0.339,0.272,0.677,0.407,1.016
							c-0.445,0.397-0.84,0.891-1.245,1.356c-2.265-2.621-4.909-5.013-7.625-7.137C170.11,139.736,170.774,138.883,171.538,138.092z
							 M166.577,142.651c0.453-0.453,0.95-1.139,1.515-1.496c0.076,0.037,0.153,0.082,0.23,0.137c0.034,0.08,0.089,0.16,0.171,0.236
							c2.513,2.319,4.904,4.741,7.33,7.141c-0.891,0.956-1.805,1.889-2.729,2.813c-2.572-2.543-5.142-5.088-7.719-7.626
							C165.775,143.453,166.176,143.052,166.577,142.651z M172.579,152.96c-0.652,0.746-1.388,1.42-2.187,2.003
							c-2.299-2.256-4.595-4.515-6.911-6.754c0.635-0.805,1.313-1.57,2.053-2.286C167.88,148.271,170.23,150.615,172.579,152.96z
							 M165.571,160.919c-0.176-0.149-0.471-0.369-0.528-0.417c-0.398-0.332-0.795-0.664-1.193-0.996
							c-0.674-0.562-1.355-1.114-2.036-1.669c1.328-1.735,2.651-3.473,3.989-5.201c1.316,1.309,2.628,2.623,3.945,3.93
							c0.038,0.037,0.087,0.063,0.133,0.093c-0.679,0.689-1.362,1.374-2.049,2.056C167.111,159.431,166.206,160.122,165.571,160.919
							z M158.117,206.233c0.382-3.444,0.91-6.872,1.57-10.273c1.297-6.682,3.153-13.206,5.364-19.639
							c1.26-3.667,2.687-7.271,4.283-10.805c0.5,0.455,1.054,0.843,1.702,1.141c0.743,0.342,1.334-0.636,0.645-1.103
							c-1.002-0.679-1.889-1.581-2.426-2.672c-0.245-0.498-0.436-1.02-0.557-1.561c-0.053-0.236-0.089-0.427-0.147-0.601
							c0.534-0.537,1.07-1.073,1.599-1.615c1.654-1.694,3.283-3.411,4.898-5.143c1.496-1.605,3.052-3.186,4.477-4.858
							c0.081,0.162,0.167,0.32,0.26,0.473c-1.495,2.135-2.545,4.567-2.984,7.143c-0.257,1.505-1.13,6.066,1.282,6.281
							c0.311,0.028,0.583-0.288,0.58-0.58c-0.004-0.441-0.189-0.839-0.243-1.276c-0.065-0.526-0.054-1.07-0.042-1.599
							c0.026-1.09,0.162-2.165,0.391-3.23c0.468-2.174,1.285-4.239,2.444-6.139c0.201-0.33,0.13-0.634-0.061-0.841
							c-0.187-0.844-0.697-1.674-1.071-2.444c-0.427-0.877-0.9-1.723-1.351-2.587c-0.088-0.17-0.243-0.242-0.407-0.255
							c-1.07-0.777-2.184-1.634-3.026-2.643c-0.89-1.064-0.237-1.999,0.577-2.787c2.479,1.618,5.201,2.974,8.039,3.832
							c0.497,1.863,1.963,3.52,3.025,5.067c0.626,0.913,1.251,1.827,1.883,2.736c0.646,0.928,1.257,2.147,2.127,2.874
							c0.062,0.052,0.133,0.085,0.204,0.119c-0.296,0.512-0.604,1.013-0.906,1.519c-2.704,2.348-5.38,4.727-8.057,7.106
							c-1.565,1.391-3.115,2.8-4.707,4.159c-0.612,0.522-1.222,0.937-1.542,1.702c-0.33,0.789-0.339,1.663-0.367,2.505
							c-0.28,8.258-0.194,16.549-0.73,24.796c-0.294,4.52-0.919,9.026-2.258,13.363c-0.206,0.666,0.703,0.964,1.066,0.449
							c3.119-4.422,5.537-9.243,7.105-14.419c1.223-0.027,2.434-0.101,3.655-0.237c1.111-0.124,2.385-0.131,3.474-0.477
							c0.9,4.451,1.877,8.877,2.541,13.381c0.245,1.659,0.456,3.323,0.65,4.988c-1.2,0.023-2.438,0.241-3.62,0.344
							c-1.405,0.122-2.811,0.228-4.217,0.337c-2.813,0.217-5.63,0.385-8.448,0.503c-5.633,0.237-11.283,0.313-16.921,0.266
							c-0.138-0.001-0.243,0.041-0.333,0.099c0.037-0.777,0.063-1.555,0.119-2.327C157.775,209.612,157.929,207.921,158.117,206.233
							z M174.398,219.31c-5.742-0.612-11.46-1.709-17.094-2.976c0.084-0.567,0.132-1.14,0.171-1.715
							c0.098,0.091,0.224,0.159,0.392,0.168c5.7,0.302,11.392,0.338,17.097,0.127c2.818-0.104,5.635-0.258,8.448-0.461
							c1.407-0.102,2.812-0.232,4.216-0.37c1.178-0.116,2.441-0.154,3.621-0.383c0.062,0.578,0.133,1.156,0.189,1.735
							c0.129,1.326,0.242,2.654,0.34,3.983c0.01,0.135,0.012,0.276,0.019,0.413C185.994,220.086,180.175,219.925,174.398,219.31z
							 M212.259,220.524c-2.211,0.246-4.422,0.491-6.632,0.737c-3.858,0.429-7.719,0.814-11.504,1.678
							c0.057-1.164-0.115-2.38-0.199-3.521c-0.102-1.386-0.222-2.772-0.357-4.156c-0.135-1.378-0.288-2.754-0.455-4.128
							c4.553-0.658,9.072-1.53,13.591-2.387c2.38-0.452,4.761-0.903,7.141-1.354c1.914-0.363,3.878-0.646,5.794-1.058
							c-0.444,4.433-0.733,8.884-0.93,13.334c-0.003,0.064-0.005,0.129-0.008,0.193
							C216.567,219.889,214.379,220.288,212.259,220.524z M216.374,297.789c0.437-4.895,0.597-9.831,0.885-14.736
							c0.294-5.013,0.589-10.025,0.883-15.038c0.591-10.067,1.245-20.132,1.761-30.203c0.175-3.417,0.319-6.85,0.271-10.276
							c0.015-0.197,0.031-0.394,0.045-0.592c0.18-2.422,0.248-4.852,0.373-7.277c0.24-4.658,0.59-9.307,0.946-13.957
							c0.393-0.501,0.161-1.457-0.608-1.366c-2.409,0.284-4.81,0.881-7.192,1.336c-2.438,0.466-4.875,0.932-7.313,1.398
							c-4.507,0.861-9.02,1.707-13.486,2.761c-0.128-0.991-0.254-1.982-0.398-2.97c-0.785-5.389-1.654-10.913-3.197-16.151
							c8.412-2.744,16.725-5.805,25.067-8.749c2.138-0.755,4.277-1.51,6.415-2.264c1.995-0.704,4.003-1.508,6.1-1.858
							c2.217-0.37,4.35,0.108,6.514,0.562c2.137,0.449,4.292,0.792,6.458,1.07c4.935,0.634,9.909,0.876,14.876,1.11
							c0.315,1.897,0.389,3.807-0.046,5.68c-0.109,0.468,0.143,0.938,0.612,1.078c2.282,0.677,4.629,1.433,6.982,1.812
							c0.184,0.03,0.342-0.001,0.488-0.054c0.2,0.142,0.446,0.211,0.723,0.124c1.266-0.398,2.519-0.843,3.768-1.302
							c0.007,0.882,0.013,1.764,0.03,2.645c0.022,1.128-0.055,2.313,0.155,3.423c0.001,0.006,0.005,0.01,0.007,0.016
							c-0.264,0.299-0.342,0.752,0.027,1.13c0.973,0.996,1.923,2.013,2.877,3.027c0.942,1.001,1.801,2.161,2.827,3.072
							c0.016,0.014,0.036,0.018,0.053,0.031c-0.022,0.529,0.416,1.102,1.101,0.956c9.188-1.961,19.504-4.72,25.487-12.57
							c0.341-0.447,0.107-0.961-0.292-1.241c0.182-0.771,0.088-1.614,0.054-2.408c2.455,2.024,4.977,3.972,7.518,5.896
							c-3.816,3.433-7.941,6.29-12.551,8.573c-4.7,2.328-9.675,4.059-14.701,5.534c-2.663,0.782-5.35,1.477-8.022,2.23
							c-1.19-1.833-2.63-3.481-4.326-4.865c-0.314-0.512-1.172-0.207-1.048,0.463c0.736,4.008,1.753,7.96,2.676,11.928
							c0.076,0.327,0.411,0.559,0.738,0.562c0.784,0.006,1.617-0.055,2.423-0.218c-4.573,9.781-8.106,20.077-11.241,30.396
							c-3.336,10.979-6.072,22.139-8.189,33.416c-1.174,6.25-2.149,12.535-2.95,18.843c-2.62,0.056-5.241,0.121-7.861,0.148
							C233.559,299,224.806,299.342,216.374,297.789z M306.763,295.251c-1.873,0.192-3.744,0.393-5.619,0.57
							c1.99-14.805,5.16-29.426,9.29-43.78c0.46-1.598,0.934-3.194,1.408-4.789c-0.132,1.09-0.26,2.181-0.389,3.268
							c-0.436,3.662-0.86,7.325-1.273,10.989c-0.826,7.327-1.581,14.662-2.301,22C307.496,287.422,307.163,291.34,306.763,295.251z
							 M325.983,293.041c-3.982,0.518-7.968,1.003-11.958,1.453c-1.806,0.204-3.615,0.375-5.422,0.565
							c1.082-14.276,2.678-28.537,4.238-42.766c0.45-4.106,1.003-8.225,1.225-12.351c0.037-0.119,0.073-0.239,0.11-0.359
							c0.26-0.834-0.99-1.146-1.289-0.355c-5.521,14.57-9.323,29.796-12.015,45.13c-0.679,3.868-1.265,7.751-1.791,11.643
							c-3.011,0.275-6.022,0.55-9.036,0.786c-12.626,0.991-25.279,1.627-37.941,1.937c1.419-11.156,3.442-22.236,6.05-33.176
							c2.622-10.998,5.827-21.856,9.61-32.511c2.098-5.909,4.36-11.759,6.54-17.636c0.507-0.346,0.299-1.063-0.197-1.247
							c-0.276-0.146-0.622-0.148-0.847,0.079c-0.925,0.236-1.806,0.457-2.756,0.529c-0.77-3.142-1.506-6.296-2.368-9.413
							c1.096,1.253,2.02,2.632,2.76,4.147c0.151,0.31,0.543,0.415,0.854,0.348c5.242-1.144,10.438-2.681,15.474-4.531
							c4.957-1.821,9.811-4.031,14.238-6.926c2.464-1.611,4.878-3.425,6.958-5.517c2.078,1.574,4.154,3.152,6.184,4.781
							c5.304,4.258,10.528,8.622,15.604,13.148c2.853,2.543,5.677,5.121,8.44,7.761c0.086,0.082,0.178,0.124,0.271,0.17
							c1.28,9.393,1.122,18.994,1.158,28.453c0.02,5.311-0.04,10.632-0.315,15.939c-0.326,4.658-0.77,9.307-1.354,13.939
							c-0.001,0.011-0.003,0.023-0.005,0.034c-0.291,1.939-0.616,3.873-1.012,5.793c-0.274,1.333-0.575,2.661-0.904,3.981
							c-0.161,0.648-0.415,1.321-0.516,1.979c-0.005,0.03,0,0.055-0.003,0.084c-0.348,0.208-0.593,0.591-0.485,1.098
							c0.365,1.716-2.351,2.038-3.462,2.196C330.01,292.513,327.996,292.779,325.983,293.041z"/>
					</g>
					<g>
						<path style="fill:#F7D90D;" d="M285.72,237.1c-9.965-0.191-19.965-0.901-29.927-0.271c-1.322,0.084-1.324,1.972,0,2.056
							c9.962,0.63,19.961-0.08,29.927-0.271C286.694,238.595,286.695,237.119,285.72,237.1L285.72,237.1z"/>
						<path style="fill:#F7D90D;" d="M297.17,243.218c-13.034-0.249-26.067-0.331-39.103-0.365c-1.794-0.005-3.587,0-5.381,0
							c-1.91,0-3.844-0.099-5.74,0.151c-1.076,0.142-1.078,1.535,0,1.678c1.606,0.212,3.225,0.151,4.843,0.151
							c1.674,0,3.348,0,5.022,0c3.229,0,6.457-0.024,9.686-0.039c6.516-0.03,13.037,0.01,19.552-0.114
							c3.707-0.071,7.414-0.141,11.121-0.212C297.973,244.452,297.975,243.234,297.17,243.218L297.17,243.218z"/>
						<path style="fill:#F7D90D;" d="M298.211,249.82c-14.419-0.262-28.849-0.318-43.271-0.224
							c-4.052,0.026-8.111,0.067-12.159,0.274c-0.949,0.049-0.951,1.427,0,1.476c7.197,0.368,14.43,0.317,21.635,0.302
							c7.212-0.015,14.423-0.042,21.635-0.099c4.053-0.032,8.106-0.079,12.159-0.153
							C299.225,251.378,299.227,249.839,298.211,249.82L298.211,249.82z"/>
						<path style="fill:#F7D90D;" d="M296.129,257.138c-13.933-0.328-27.878-0.307-41.814-0.334
							c-3.917-0.008-7.904-0.157-11.794,0.347c-0.955,0.124-0.957,1.365,0,1.488c3.422,0.443,6.918,0.356,10.364,0.35
							c3.514-0.007,7.029-0.014,10.543-0.021c6.969-0.014,13.938-0.083,20.907-0.134c3.933-0.029,7.862-0.09,11.794-0.182
							C297.103,258.629,297.104,257.161,296.129,257.138L296.129,257.138z"/>
						<path style="fill:#F7D90D;" d="M293.006,264.011c-13.486-0.179-26.973-0.417-40.46-0.44
							c-3.853-0.007-7.742-0.165-11.586,0.138c-1.224,0.096-1.226,1.808,0,1.904c3.374,0.266,6.777,0.146,10.16,0.14
							c3.387-0.006,6.773-0.025,10.16-0.049c6.714-0.049,13.427-0.15,20.141-0.24c3.862-0.051,7.724-0.103,11.586-0.154
							C293.842,265.299,293.844,264.022,293.006,264.011L293.006,264.011z"/>
						<path style="fill:#F7D90D;" d="M291.445,271.782c-7.59-0.128-15.179-0.155-22.77-0.196c-3.765-0.02-7.53-0.041-11.295-0.061
							c-3.831-0.021-7.656-0.08-11.475,0.263c-1.207,0.109-1.209,1.771,0,1.879c3.818,0.344,7.644,0.284,11.475,0.264
							c3.765-0.02,7.53-0.041,11.295-0.061c7.591-0.041,15.18-0.068,22.77-0.196C292.662,273.654,292.664,271.803,291.445,271.782
							L291.445,271.782z"/>
						<path style="fill:#F7D90D;" d="M287.281,278.389c-15.53-0.221-31.061-0.251-46.592-0.287
							c-4.415-0.01-8.853-0.099-13.261,0.179c-1.224,0.077-1.227,1.827,0,1.905c3.873,0.245,7.769,0.192,11.648,0.183
							c3.883-0.009,7.765-0.018,11.648-0.026c7.766-0.018,15.531-0.06,23.296-0.102c4.421-0.024,8.841-0.099,13.261-0.162
							C288.369,280.063,288.37,278.404,287.281,278.389L287.281,278.389z"/>
						<path style="fill:#F7D90D;" d="M279.735,144.043c-3.426-0.111-6.851-0.253-10.279-0.296c-3.419-0.043-6.865-0.18-10.279,0.05
							c-0.819,0.055-0.82,1.219,0,1.274c3.414,0.23,6.86,0.094,10.279,0.05c3.428-0.044,6.853-0.186,10.279-0.296
							C280.237,144.809,280.238,144.06,279.735,144.043L279.735,144.043z"/>
						<path style="fill:#F7D90D;" d="M277.392,139.309c-2.646-0.053-5.291-0.176-7.937-0.226c-2.639-0.05-5.309-0.165-7.937,0.118
							c-0.704,0.076-0.706,1.021,0,1.097c2.628,0.283,5.298,0.169,7.937,0.118c2.646-0.05,5.291-0.173,7.937-0.226
							C277.961,140.18,277.961,139.32,277.392,139.309L277.392,139.309z"/>
						<path style="fill:#F7D90D;" d="M207.13,127.374c9.277,0.063,18.573,0.28,27.845-0.076c1.055-0.04,1.056-1.599,0-1.64
							c-9.272-0.355-18.568-0.138-27.845-0.076C205.978,125.591,205.976,127.366,207.13,127.374L207.13,127.374z"/>
						<path style="fill:#F7D90D;" d="M199.323,133.094c5.682,0.026,11.363,0.056,17.045,0.059
							c5.677,0.002,11.374,0.139,17.045-0.141c0.706-0.035,0.707-1.062,0-1.097c-5.671-0.28-11.368-0.143-17.045-0.141
							c-5.682,0.002-11.363,0.033-17.045,0.059C198.512,131.837,198.51,133.091,199.323,133.094L199.323,133.094z"/>
						<path style="fill:#F7D90D;" d="M196.981,139.733c5.638,0.01,11.277,0.02,16.915,0.029c5.639,0.01,11.287,0.129,16.915-0.275
							c0.665-0.048,0.666-0.986,0-1.034c-5.628-0.405-11.276-0.285-16.915-0.275c-5.638,0.01-11.277,0.02-16.915,0.029
							C195.999,138.208,195.998,139.731,196.981,139.733L196.981,139.733z"/>
						<path style="fill:#231310;" d="M297.078,126.738c5.39,0.064,10.781,0.045,16.171,0.048c5.4,0.002,10.781,0.023,16.171-0.35
							c0.919-0.064,0.92-1.366,0-1.429c-5.39-0.374-10.771-0.353-16.171-0.35c-5.391,0.002-10.781-0.016-16.171,0.048
							C295.769,124.719,295.767,126.722,297.078,126.738L297.078,126.738z"/>
						<path style="fill:#231310;" d="M301.825,130.949c7.005,0.066,14.079,0.366,21.067-0.206c0.735-0.06,0.736-1.083,0-1.144
							c-6.988-0.572-14.062-0.272-21.067-0.206C300.825,129.403,300.823,130.94,301.825,130.949L301.825,130.949z"/>
						<path style="fill:#231310;" d="M309.231,193.755c5.391,0.074,10.78,0.098,16.171,0.112c2.666,0.007,5.331,0.001,7.997,0.001
							c2.724,0,5.468,0.062,8.175-0.29c0.96-0.125,0.962-1.372,0-1.497c-2.706-0.352-5.45-0.29-8.175-0.29
							c-2.666,0-5.331-0.006-7.997,0.001c-5.391,0.015-10.781,0.038-16.171,0.112C308.041,191.921,308.039,193.738,309.231,193.755
							L309.231,193.755z"/>
						<path style="fill:#231310;" d="M313.682,197.904c6.907,0.096,13.873,0.305,20.771-0.113c1.038-0.063,1.04-1.551,0-1.615
							c-6.898-0.419-13.863-0.209-20.771-0.113C312.497,196.079,312.495,197.888,313.682,197.904L313.682,197.904z"/>
						<path style="fill:#231310;" d="M320.21,201.543c2.384,0.031,4.768,0.059,7.152,0.067c2.317,0.008,4.635,0.073,6.931-0.275
							c0.49-0.074,0.49-0.915,0-0.989c-2.296-0.348-4.614-0.283-6.931-0.275c-2.384,0.008-4.768,0.037-7.152,0.067
							C319.307,200.151,319.305,201.532,320.21,201.543L320.21,201.543z"/>
					</g>
				</g>
			</g>
			<g>
				
					<ellipse transform="matrix(0.9239 -0.3827 0.3827 0.9239 -62.5515 52.616)" style="fill:#231310;" cx="100.983" cy="183.542" rx="26.745" ry="26.744"/>
				<path style="fill:#231310;" d="M100.984,211.363c-15.34,0-27.821-12.48-27.821-27.821s12.48-27.821,27.821-27.821
					c15.34,0,27.821,12.48,27.821,27.821S116.324,211.363,100.984,211.363z M100.984,157.874c-14.153,0-25.668,11.515-25.668,25.668
					c0,14.153,11.515,25.668,25.668,25.668s25.668-11.515,25.668-25.668C126.652,169.389,115.137,157.874,100.984,157.874z"/>
				<path style="fill:#FFFFFF;" d="M152.255,175.61c-3.683-0.288-7.41-0.24-11.102-0.237c-3.701,0.004-7.402,0.007-11.102,0.011
					c-5.67,0.006-11.339,0.058-17.008,0.143c-0.267-1.643-0.762-3.206-1.456-4.66c2.325,0.011,4.65,0.03,6.974,0.033
					c5.615,0.007,11.315,0.137,16.912-0.358c0.68-0.06,0.682-0.999,0-1.059c-5.597-0.496-11.297-0.366-16.912-0.358
					c-2.636,0.003-5.272,0.024-7.908,0.038c-3.064-4.91-8.499-8.188-14.713-8.188c-9.581,0-17.348,7.767-17.348,17.348
					s7.767,17.348,17.348,17.348c7.75,0,14.31-5.084,16.535-12.098c3.365,0.054,6.737,0.091,10.088-0.145
					c0.981-0.069,0.983-1.457,0-1.526c-3.195-0.225-6.409-0.2-9.617-0.15c0.223-1.109,0.342-2.255,0.342-3.429
					c0-0.482-0.034-0.956-0.072-1.428c5.611,0.083,11.222,0.135,16.835,0.14c3.701,0.004,7.402,0.007,11.102,0.011
					c3.693,0.004,7.419,0.051,11.102-0.236C153.025,176.748,153.027,175.67,152.255,175.61z"/>
				<path style="fill:#231310;" d="M118.174,187.929c9.201,0.219,18.426,0.423,27.627,0.097c0.919-0.033,0.921-1.397,0-1.429
					c-9.201-0.327-18.426-0.123-27.627,0.097C117.379,186.712,117.377,187.91,118.174,187.929L118.174,187.929z"/>
				<path style="fill:#231310;" d="M123.338,192.911c4.542,0.251,9.158,0.369,13.684-0.118c0.739-0.079,0.741-1.072,0-1.152
					c-4.527-0.487-9.142-0.369-13.684-0.118C122.446,191.573,122.444,192.861,123.338,192.911L123.338,192.911z"/>
				<path style="fill:#231310;" d="M122.563,198.083c2.837,0.091,5.687,0.276,8.52,0.046c0.962-0.078,0.964-1.419,0-1.497
					c-2.833-0.23-5.683-0.045-8.52,0.046C121.66,196.708,121.658,198.054,122.563,198.083L122.563,198.083z"/>
			</g>
		</g>
	</g>
	<g>
		<text transform="matrix(1 0 0 1 105.2604 341.1605)"><tspan x="0" y="0" style="fill:#231310; font-family:'Bungee-Regular'; font-size:49.4262px;">PING </tspan><tspan x="146.942" y="0" style="fill:#F6D510; font-family:'Bungee-Regular'; font-size:49.4262px;">PONG</tspan></text>
		
			<text transform="matrix(1 0 0 1 140.1235 363.8463)" style="fill:#231310; font-family:'Montserrat-LightItalic'; font-size:23.3161px; letter-spacing:4;">Tournament</text>
	</g>
</g>
</svg>
